<svg width="800" height="800" viewBox="0 0 42 42" xmlns="http://www.w3.org/2000/svg"><path data-name="30.User" d="M21 42a21 21 0 1 1 21-21 21 21 0 0 1-21 21m11.633-6a48 48 0 0 0-.514-.742c-.277-.394-.554-.788-.8-1.178-.014-.018-1.384-1.856-6.319-2.08a2.92 2.92 0 0 1-2.968-3.066L22 28c0-.135-.016.148 0 0v-1l1-1a14.4 14.4 0 0 0 2.4-1.464l.135-.093A4.64 4.64 0 0 0 27 23l.036-.381A56 56 0 0 0 28 16c0-4.71-2.29-7-7-7-4.775 0-7 2.224-7 7a55 55 0 0 0 .963 6.616l.035.352a4 4 0 0 0 1.449 1.462l.1.062A19 19 0 0 0 19 26l1 1v1c.014.138 0-.146 0 0l-.033.934A2.9 2.9 0 0 1 17.084 32c-4.956.2-6.393 2.077-6.4 2.077-.252.4-.528.789-.807 1.184-.157.224-.355.51-.513.741a18.92 18.92 0 0 0 23.267 0ZM21 2A18.986 18.986 0 0 0 7.85 34.694c.382-.565.79-1.129 1.15-1.694 0 0 1.67-2.743 8-3 .645 0 .967-.422.967-1.066V28c0-.13-.021-.247-.027-.373a17.5 17.5 0 0 1-2.54-1.494S13 24.657 13 23a60 60 0 0 1-1-7c0-4.644 1.986-9 9-9 6.92 0 9 4.356 9 9a62 62 0 0 1-1 7c0 1.611-2.4 3.133-2.4 3.133a14 14 0 0 1-2.543 1.546c0 .109-.023.209-.023.321v.934c0 .644.32 1.066.965 1.066 6.424.288 8 3 8 3 .36.565.767 1.129 1.149 1.694A18.985 18.985 0 0 0 21 2" fill-rule="evenodd"/></svg>